<svg width="18" height="18" viewBox="0 0 18 18" fill="none" xmlns="http://www.w3.org/2000/svg">
<path fill-rule="evenodd" clip-rule="evenodd" d="M2.79349 1.25713C2.40296 0.866602 1.7698 0.866602 1.37927 1.25713L1.25713 1.37928C0.866602 1.7698 0.866603 2.40296 1.25713 2.79349L7.46365 9.00001L1.25713 15.2065C0.866603 15.5971 0.866602 16.2302 1.25713 16.6207L1.37928 16.7429C1.7698 17.1334 2.40296 17.1334 2.79349 16.7429L9.00001 10.5364L15.2065 16.7429C15.5971 17.1334 16.2302 17.1334 16.6207 16.7429L16.7429 16.6207C17.1334 16.2302 17.1334 15.5971 16.7429 15.2065L10.5364 9.00001L16.7429 2.79349C17.1334 2.40296 17.1334 1.7698 16.7429 1.37928L16.6207 1.25713C16.2302 0.866602 15.5971 0.866602 15.2065 1.25713L9.00001 7.46365L2.79349 1.25713Z" fill="white"/>
</svg>
